<svg xmlns="http://www.w3.org/2000/svg" viewBox="0 0 512 512">
  <!-- Android adaptive icon foreground -->
  <!-- Poop emoji (💩) style icon - scaled for safe zone -->

  <g transform="translate(256, 256) scale(0.72) translate(-256, -256)">
    <!-- Shadow under poop -->
    <ellipse cx="256" cy="420" rx="120" ry="25" fill="#000000" opacity="0.15"/>

    <!-- Bottom section (base) -->
    <ellipse cx="256" cy="380" rx="130" ry="55" fill="#8B5A2B"/>
    <ellipse cx="256" cy="380" rx="130" ry="55" fill="url(#baseGradient)"/>

    <!-- Middle section -->
    <ellipse cx="256" cy="310" rx="110" ry="50" fill="#8B5A2B"/>
    <path d="M146 310 Q146 270 180 270 Q210 300 256 300 Q302 300 332 270 Q366 270 366 310" fill="#8B5A2B"/>

    <!-- Top swirl section -->
    <path d="M175 270 Q175 230 210 220 Q235 250 280 230 Q320 210 305 170 Q340 155 325 115 Q300 85 270 105 Q255 80 215 95 Q175 110 175 155 Q150 180 160 220 Q155 250 175 270" fill="#8B5A2B"/>

    <!-- Tip of the swirl -->
    <ellipse cx="295" cy="105" rx="35" ry="28" fill="#8B5A2B"/>

    <!-- Highlights -->
    <ellipse cx="320" cy="125" rx="12" ry="10" fill="#A0724B" opacity="0.6"/>
    <ellipse cx="290" cy="250" rx="40" ry="20" fill="#A0724B" opacity="0.4"/>
    <ellipse cx="280" cy="340" rx="50" ry="25" fill="#A0724B" opacity="0.3"/>

    <!-- Left eye -->
    <ellipse cx="205" cy="320" rx="30" ry="35" fill="white"/>
    <ellipse cx="212" cy="326" rx="15" ry="18" fill="#3D2314"/>
    <ellipse cx="218" cy="318" rx="7" ry="8" fill="white"/>

    <!-- Right eye -->
    <ellipse cx="307" cy="320" rx="30" ry="35" fill="white"/>
    <ellipse cx="314" cy="326" rx="15" ry="18" fill="#3D2314"/>
    <ellipse cx="320" cy="318" rx="7" ry="8" fill="white"/>

    <!-- Smile -->
    <path d="M200 375 Q256 425 312 375" stroke="#3D2314" stroke-width="10" fill="none" stroke-linecap="round"/>

    <!-- Rosy cheeks -->
    <ellipse cx="165" cy="355" rx="20" ry="14" fill="#C9967A" opacity="0.5"/>
    <ellipse cx="347" cy="355" rx="20" ry="14" fill="#C9967A" opacity="0.5"/>
  </g>

  <defs>
    <linearGradient id="baseGradient" x1="0%" y1="0%" x2="0%" y2="100%">
      <stop offset="0%" style="stop-color:#9B6A3B;stop-opacity:0.3"/>
      <stop offset="100%" style="stop-color:#6B4A2B;stop-opacity:0.3"/>
    </linearGradient>
  </defs>
</svg>
