<svg xmlns="http://www.w3.org/2000/svg" viewBox="0 0 512 512">
  <!-- Background circle (optional, for round icons) -->
  <circle cx="256" cy="256" r="256" fill="#4CAF50"/>

  <!-- Poop shape - main body -->
  <ellipse cx="256" cy="380" rx="140" ry="80" fill="#8B5A2B"/>
  <ellipse cx="256" cy="380" rx="140" ry="80" fill="#7B4A1B"/>

  <!-- Poop middle section -->
  <ellipse cx="256" cy="310" rx="115" ry="65" fill="#8B5A2B"/>
  <path d="M141 310 Q141 250 180 250 Q200 280 256 280 Q312 280 332 250 Q371 250 371 310" fill="#8B5A2B"/>

  <!-- Poop top swirl -->
  <path d="M180 250 Q180 200 220 190 Q240 220 280 200 Q320 180 300 140 Q340 120 320 80 Q280 60 260 100 Q240 80 200 110 Q160 140 180 190 Q160 220 180 250" fill="#8B5A2B"/>

  <!-- Poop tip -->
  <ellipse cx="270" cy="85" rx="35" ry="30" fill="#8B5A2B"/>

  <!-- Shading/highlights -->
  <ellipse cx="230" cy="370" rx="100" ry="50" fill="#6B3A0B" opacity="0.3"/>
  <ellipse cx="280" cy="300" rx="60" ry="30" fill="#9B6A3B" opacity="0.4"/>
  <ellipse cx="260" cy="200" rx="30" ry="20" fill="#9B6A3B" opacity="0.4"/>

  <!-- Left eye -->
  <ellipse cx="210" cy="320" rx="28" ry="32" fill="white"/>
  <ellipse cx="215" cy="325" rx="14" ry="16" fill="#2C1810"/>
  <ellipse cx="220" cy="320" rx="6" ry="7" fill="white"/>

  <!-- Right eye -->
  <ellipse cx="302" cy="320" rx="28" ry="32" fill="white"/>
  <ellipse cx="307" cy="325" rx="14" ry="16" fill="#2C1810"/>
  <ellipse cx="312" cy="320" rx="6" ry="7" fill="white"/>

  <!-- Smile -->
  <path d="M205 375 Q256 420 307 375" stroke="#2C1810" stroke-width="8" fill="none" stroke-linecap="round"/>

  <!-- Cheek blush -->
  <ellipse cx="175" cy="355" rx="18" ry="12" fill="#D4A574" opacity="0.6"/>
  <ellipse cx="337" cy="355" rx="18" ry="12" fill="#D4A574" opacity="0.6"/>
</svg>
